<?xml version="1.0" encoding="UTF-8" standalone="no"?>
<svg
   xmlns:dc="http://purl.org/dc/elements/1.1/"
   xmlns:cc="http://creativecommons.org/ns#"
   xmlns:rdf="http://www.w3.org/1999/02/22-rdf-syntax-ns#"
   xmlns:svg="http://www.w3.org/2000/svg"
   xmlns="http://www.w3.org/2000/svg"
   xmlns:sodipodi="http://sodipodi.sourceforge.net/DTD/sodipodi-0.dtd"
   xmlns:inkscape="http://www.inkscape.org/namespaces/inkscape"
   width="16"
   height="16"
   fill="currentColor"
   class="bi bi-volume-mute-fill"
   viewBox="0 0 16 16"
   version="1.1"
   id="svg4"
   sodipodi:docname="volume-mute-fill.svg"
   inkscape:version="0.92.5 (2060ec1f9f, 2020-04-08)">
  <metadata
     id="metadata10">
    <rdf:RDF>
      <cc:Work
         rdf:about="">
        <dc:format>image/svg+xml</dc:format>
        <dc:type
           rdf:resource="http://purl.org/dc/dcmitype/StillImage" />
      </cc:Work>
    </rdf:RDF>
  </metadata>
  <defs
     id="defs8" />
  <sodipodi:namedview
     pagecolor="#ffffff"
     bordercolor="#666666"
     borderopacity="1"
     objecttolerance="10"
     gridtolerance="10"
     guidetolerance="10"
     inkscape:pageopacity="0"
     inkscape:pageshadow="2"
     inkscape:window-width="1904"
     inkscape:window-height="1000"
     id="namedview6"
     showgrid="false"
     inkscape:zoom="14.75"
     inkscape:cx="-3.5254237"
     inkscape:cy="7.8644068"
     inkscape:window-x="1608"
     inkscape:window-y="35"
     inkscape:window-maximized="0"
     inkscape:current-layer="svg4" />
  <path
     d="M6.717 3.55A.5.5 0 0 1 7 4v8a.5.5 0 0 1-.812.39L3.825 10.5H1.5A.5.5 0 0 1 1 10V6a.5.5 0 0 1 .5-.5h2.325l2.363-1.89a.5.5 0 0 1 .529-.06zm7.137 2.096a.5.5 0 0 1 0 .708L12.207 8l1.647 1.646a.5.5 0 0 1-.708.708L11.5 8.707l-1.646 1.647a.5.5 0 0 1-.708-.708L10.793 8 9.146 6.354a.5.5 0 1 1 .708-.708L11.5 7.293l1.646-1.647a.5.5 0 0 1 .708 0z"
     id="path2" />
  <path
     style="fill:#ffffff;fill-opacity:1;stroke-width:0.06779661"
     d="M 6.3646802,12.438694 C 6.3116951,12.418134 5.7167798,11.963497 5.0426463,11.42839 L 3.8169492,10.455467 2.5562704,10.454852 C 1.3614633,10.454269 1.2888432,10.446786 1.1664398,10.31163 1.0463401,10.179018 1.0358992,10.02368 1.0174714,8.095306 0.99633479,5.8834794 1.0159442,5.7185029 1.3162469,5.5816759 1.4201717,5.5343246 1.9425409,5.5040936 2.684546,5.5024884 l 1.2001998,-0.0026 1.2203389,-0.9803473 C 6.4078424,3.4729874 6.5490384,3.4052551 6.8220804,3.695895 l 0.1474111,0.1569119 v 4.140662 c 0,3.8460181 -0.00844,4.1504261 -0.118644,4.2778751 -0.1320735,0.152743 -0.3396579,0.224199 -0.4861673,0.16735 z"
     id="path14"
     inkscape:connector-curvature="0" />
  <path
     style="fill:#ffffff;fill-opacity:1;stroke-width:0.06779661"
     d="M 9.193694,10.335593 C 9.0347519,10.150529 8.9972329,9.9829344 9.078764,9.8222073 9.1199524,9.7410102 9.5317242,9.2927793 9.9938125,8.8261386 L 10.833973,7.9777008 9.9809371,7.1312233 C 9.5117673,6.6656607 9.1005952,6.2159808 9.0672214,6.1319347 c -0.107441,-0.2705707 0.1729042,-0.62685 0.4932489,-0.62685 0.041868,0 0.4913337,0.4114201 0.9988127,0.9142668 l 0.922688,0.9142667 0.841674,-0.8436991 c 0.961292,-0.9636065 1.139064,-1.073009 1.412876,-0.8695008 0.118894,0.088367 0.189667,0.2117872 0.203852,0.3554964 0.01993,0.2018556 -0.05309,0.2956941 -0.879263,1.1300431 l -0.900993,0.9099074 0.896213,0.8980611 c 0.96052,0.9625012 1.045638,1.1196987 0.760619,1.4047177 -0.285019,0.285019 -0.442216,0.199901 -1.404718,-0.7606193 L 11.51417,8.6618121 10.60909,9.5580247 C 9.8505873,10.309096 9.670939,10.454237 9.499801,10.454237 c -0.1123152,0 -0.2500633,-0.05339 -0.306107,-0.118644 z"
     id="path16"
     inkscape:connector-curvature="0" />
</svg>
