<?xml version="1.0" encoding="UTF-8" standalone="no"?>
<svg
   xmlns:dc="http://purl.org/dc/elements/1.1/"
   xmlns:cc="http://creativecommons.org/ns#"
   xmlns:rdf="http://www.w3.org/1999/02/22-rdf-syntax-ns#"
   xmlns:svg="http://www.w3.org/2000/svg"
   xmlns="http://www.w3.org/2000/svg"
   xmlns:sodipodi="http://sodipodi.sourceforge.net/DTD/sodipodi-0.dtd"
   xmlns:inkscape="http://www.inkscape.org/namespaces/inkscape"
   width="16"
   height="16"
   fill="currentColor"
   class="bi bi-volume-up-fill"
   viewBox="0 0 16 16"
   version="1.1"
   id="svg8"
   sodipodi:docname="volume-up-fill.svg"
   inkscape:version="0.92.5 (2060ec1f9f, 2020-04-08)">
  <metadata
     id="metadata14">
    <rdf:RDF>
      <cc:Work
         rdf:about="">
        <dc:format>image/svg+xml</dc:format>
        <dc:type
           rdf:resource="http://purl.org/dc/dcmitype/StillImage" />
      </cc:Work>
    </rdf:RDF>
  </metadata>
  <defs
     id="defs12" />
  <sodipodi:namedview
     pagecolor="#ffffff"
     bordercolor="#666666"
     borderopacity="1"
     objecttolerance="10"
     gridtolerance="10"
     guidetolerance="10"
     inkscape:pageopacity="0"
     inkscape:pageshadow="2"
     inkscape:window-width="1904"
     inkscape:window-height="1000"
     id="namedview10"
     showgrid="false"
     inkscape:zoom="14.75"
     inkscape:cx="8"
     inkscape:cy="7.8644068"
     inkscape:window-x="1608"
     inkscape:window-y="35"
     inkscape:window-maximized="0"
     inkscape:current-layer="svg8" />
  <path
     d="M11.536 14.01A8.473 8.473 0 0 0 14.026 8a8.473 8.473 0 0 0-2.49-6.01l-.708.707A7.476 7.476 0 0 1 13.025 8c0 2.071-.84 3.946-2.197 5.303l.708.707z"
     id="path2" />
  <path
     d="M10.121 12.596A6.48 6.48 0 0 0 12.025 8a6.48 6.48 0 0 0-1.904-4.596l-.707.707A5.483 5.483 0 0 1 11.025 8a5.483 5.483 0 0 1-1.61 3.89l.706.706z"
     id="path4" />
  <path
     d="M8.707 11.182A4.486 4.486 0 0 0 10.025 8a4.486 4.486 0 0 0-1.318-3.182L8 5.525A3.489 3.489 0 0 1 9.025 8 3.49 3.49 0 0 1 8 10.475l.707.707zM6.717 3.55A.5.5 0 0 1 7 4v8a.5.5 0 0 1-.812.39L3.825 10.5H1.5A.5.5 0 0 1 1 10V6a.5.5 0 0 1 .5-.5h2.325l2.363-1.89a.5.5 0 0 1 .529-.06z"
     id="path6" />
  <path
     style="fill:#ffffff;fill-opacity:1;stroke-width:0.06779661"
     d="M 6.3646802,12.438694 C 6.3116951,12.418134 5.7167798,11.963497 5.0426463,11.42839 L 3.8169492,10.455467 2.5562704,10.454852 C 1.3614633,10.454269 1.2888432,10.446786 1.1664398,10.31163 1.0463401,10.179018 1.0358992,10.02368 1.0174714,8.095306 0.99633479,5.8834794 1.0159442,5.7185029 1.3162469,5.5816759 1.4201717,5.5343246 1.9425409,5.5040936 2.684546,5.5024884 l 1.2001998,-0.0026 1.2203389,-0.9803473 C 6.4078424,3.4729874 6.5490384,3.4052551 6.8220804,3.695895 l 0.1474111,0.1569119 v 4.140662 c 0,3.8460181 -0.00844,4.1504261 -0.118644,4.2778751 -0.1320735,0.152743 -0.3396579,0.224199 -0.4861673,0.16735 z"
     id="path16"
     inkscape:connector-curvature="0" />
  <path
     style="fill:#ffffff;fill-opacity:1;stroke-width:0.06779661"
     d="M 8.3818582,10.820107 8.0654114,10.501094 8.399807,10.024932 C 9.2963511,8.7482991 9.2599171,7.0725519 8.3087114,5.8350871 L 8.0672978,5.5210217 8.389875,5.203295 8.7124523,4.8855683 8.9958265,5.2074985 C 9.3384636,5.5967548 9.7072673,6.3305092 9.8610033,6.9288136 10.009022,7.5048659 10.005432,8.5199135 9.85333,9.0983051 9.7090276,9.6470396 9.2891796,10.462803 8.9530606,10.847526 l -0.2547555,0.291595 z"
     id="path18"
     inkscape:connector-curvature="0" />
  <path
     style="fill:#ffffff;fill-opacity:1;stroke-width:0.06779661"
     d="M 9.7901613,12.225899 9.4582888,11.887229 9.7461287,11.560564 C 10.167789,11.082027 10.526242,10.438348 10.777523,9.7084746 10.989233,9.0935395 10.999305,9.0184078 11.000195,8.0474576 11.000901,7.2763516 10.971737,6.9239765 10.879556,6.5898305 10.703579,5.9519375 10.216463,4.9926102 9.8259137,4.5147856 L 9.4875089,4.1007578 9.810662,3.7824638 l 0.323153,-0.318294 0.25374,0.28086 c 0.623603,0.6902534 1.129647,1.6672918 1.438312,2.7770041 0.18537,0.6664399 0.167592,2.3467329 -0.03264,3.0847458 -0.249139,0.9182873 -0.826328,1.9974083 -1.44374,2.6992333 l -0.227457,0.258556 z"
     id="path20"
     inkscape:connector-curvature="0" />
  <path
     style="fill:#ffffff;fill-opacity:1;stroke-width:0.06779661"
     d="m 11.210418,13.644372 -0.323911,-0.328856 0.365197,-0.430639 c 2.410835,-2.842852 2.387164,-7.0820688 -0.0549,-9.8317009 l -0.306652,-0.3452745 0.327805,-0.3350078 0.327805,-0.3350077 0.292206,0.3268196 c 2.871818,3.2120004 2.860393,8.0390853 -0.02674,11.2961413 l -0.276903,0.312382 z"
     id="path22"
     inkscape:connector-curvature="0" />
</svg>
